<svg width="600" height="120" viewBox="0 0 600 120" fill="none" xmlns="http://www.w3.org/2000/svg">
  <!-- Cloud Icon (left aligned) -->
  <path d="M40 70C40 55 52 45 65 45C68 30 85 20 105 20C125 20 142 35 145 55C155 55 168 65 168 80C168 95 155 105 140 105H65C50 105 40 95 40 80V78" fill="black" fill-opacity="0.9"/>
  <!-- Sync Arrow inside cloud (white, as it will be inverted) -->
  <path d="M90 50C90 50 110 50 110 70" stroke="white" stroke-width="8" stroke-linecap="round"/>
  <path d="M110 70L100 60" stroke="white" stroke-width="8" stroke-linecap="round"/>
  <path d="M110 70L120 60" stroke="white" stroke-width="8" stroke-linecap="round"/>
  
  <!-- Text (right of icon) -->
  <text x="185" y="78" fill="black" font-family="Arial, Helvetica, sans-serif" font-weight="900" font-size="48" letter-spacing="-0.03em">BACKUP</text>
  <text x="395" y="78" fill="black" font-family="Arial, Helvetica, sans-serif" font-weight="300" font-size="48" letter-spacing="-0.03em">STIGMA</text>
</svg>
