<?xml version='1.0' encoding='utf-8'?>
<svg xmlns="http://www.w3.org/2000/svg" width="1024" height="768" viewBox="0 0 1024 768" preserveAspectRatio="xMidYMid meet"><defs>
<linearGradient id="paint0_linear_4357_244" x1="126.109" y1="18.625" x2="106.464" y2="-33.4687" gradientUnits="userSpaceOnUse">
<stop stop-color="#4500B6" />
<stop offset="1" stop-color="#6100FF" />
</linearGradient>
<linearGradient id="paint1_linear_4357_244" x1="126.109" y1="6.7906" x2="106.467" y2="58.8805" gradientUnits="userSpaceOnUse">
<stop stop-color="#4500B6" />
<stop offset="1" stop-color="#6100FF" />
</linearGradient>
<linearGradient id="paint2_linear_4357_244" x1="0.891936" y1="18.625" x2="20.5365" y2="-33.4685" gradientUnits="userSpaceOnUse">
<stop stop-color="#6100FF" />
<stop offset="1" stop-color="#4500B6" />
</linearGradient>
<linearGradient id="paint3_linear_4357_244" x1="0.891933" y1="6.7906" x2="20.533" y2="58.8803" gradientUnits="userSpaceOnUse">
<stop stop-color="#6100FF" />
<stop offset="1" stop-color="#4500B6" />
</linearGradient>
<linearGradient id="paint4_linear_4357_244" x1="14.77" y1="15.2701" x2="4.42802" y2="10.0752" gradientUnits="userSpaceOnUse">
<stop stop-color="#6100FF" />
<stop offset="1" stop-color="#4500B6" />
</linearGradient>
</defs>
<g transform="translate(208.327313,324.221912) scale(4.782247045) translate(-0.000000,-0.000000)"><path d="M33.4196 11.684C31.3441 11.2902 30.3411 11.0762 30.3411 10.0568C30.3411 9.09121 31.1835 8.60756 32.3273 8.60756C33.6352 8.60756 34.4398 9.34204 34.5489 10.3966H37.1998C37.1457 7.99982 35.284 6.46163 32.3309 6.46163C29.3778 6.46163 27.6568 8.03666 27.6568 10.2554C27.6568 12.7952 29.5014 13.4586 31.6309 13.8695C33.7254 14.2812 34.7473 14.4943 34.7473 15.5497C34.7473 16.5333 33.8336 17.069 32.5997 17.069C31.0609 17.069 30.0939 16.2276 30.0046 15.0121L27.3555 14.977C27.3907 17.5168 29.3787 19.1988 32.5663 19.1988C35.5023 19.1988 37.4353 17.5904 37.4542 15.2458C37.4542 12.7241 35.5555 12.0787 33.4259 11.6867L33.4187 11.6822V11.6849L33.4196 11.684Z" fill="black" />
<path d="M53.7973 9.78521C52.3669 9.78521 51.4306 10.8433 51.0112 12.1011H50.3473L50.9336 10.7867C51.0581 10.5071 51.1231 10.2051 51.1231 9.89942H48.2349V19.0891H50.7668V14.3837C50.7668 12.7915 51.5208 11.8602 52.8305 11.8602C54.1404 11.8602 54.6967 12.6836 54.6967 14.2389V19.0873H57.2287V13.9342C57.2287 10.8038 55.7026 9.78341 53.8 9.78341L53.7973 9.78521Z" fill="black" />
<path d="M74.3665 9.78521C72.9358 9.78521 71.9999 10.8433 71.5804 12.1011H70.9165L71.5025 10.7867C71.6271 10.5071 71.6923 10.2051 71.6923 9.89942H68.8029V19.0891H71.3349V14.3837C71.3349 12.7915 72.089 11.8602 73.3987 11.8602C74.7085 11.8602 75.2648 12.6836 75.2648 14.2389V19.0873H77.7968V13.9342C77.7968 10.8038 76.2707 9.78341 74.3675 9.78341H74.3665V9.78521Z" fill="black" />
<path d="M64.9659 9.89852V19.0882H67.5069V9.89852H64.9659Z" fill="black" />
<path d="M91.3462 6.21529L88.8216 7.48468V19.0891H91.3462V6.21529Z" fill="black" />
<path d="M67.5069 6.67282H64.9659V9.20537H67.5069V6.67282Z" fill="black" />
<path d="M61.6782 9.89847V6.64227L59.1525 7.91167V9.89847H57.6317V12.0237H59.1525V17.7396C59.1525 18.484 59.7586 19.0882 60.5058 19.0882H63.7908V16.9611H61.6782V12.0237H63.7908V9.89847H61.6782Z" fill="black" />
<path d="M78.5853 14.5077C78.5853 11.6453 80.4694 9.78526 83.3233 9.78526C86.1772 9.78526 87.9541 11.5024 87.9721 14.2039C87.9721 14.4718 87.9541 14.7765 87.9 15.0624H81.2234V15.1874C81.2775 16.4937 82.1206 17.2803 83.3954 17.2803C84.4002 17.2803 85.1182 16.8335 85.3515 15.974H87.8465C87.5601 17.7631 85.9624 19.1943 83.4855 19.1943C80.4163 19.1943 78.5853 17.3522 78.5853 14.5077ZM85.4242 13.4163C85.2625 12.289 84.4724 11.6633 83.3424 11.6633C82.2118 11.6633 81.4217 12.3249 81.2785 13.4163H85.4242Z" fill="black" />
<path d="M112.21 9.78521C110.78 9.78521 109.844 10.8433 109.424 12.1011H108.76L109.347 10.7867C109.471 10.5071 109.536 10.2051 109.536 9.89942H106.647V19.0891H109.179V14.3837C109.179 12.7915 109.933 11.8602 111.243 11.8602C112.552 11.8602 113.109 12.6836 113.109 14.2389V19.0873H115.641V13.9342C115.641 10.8038 114.114 9.78341 112.211 9.78341H112.21V9.78521Z" fill="black" />
<path d="M116.429 14.5077C116.429 11.6453 118.313 9.78526 121.167 9.78526C124.021 9.78526 125.798 11.5024 125.816 14.2039C125.816 14.4718 125.798 14.7765 125.744 15.0624H119.067V15.1874C119.121 16.4937 119.965 17.2803 121.239 17.2803C122.244 17.2803 122.962 16.8335 123.196 15.974H125.691C125.404 17.7631 123.806 19.1943 121.329 19.1943C118.26 19.1943 116.429 17.3522 116.429 14.5077ZM123.268 13.4163C123.106 12.289 122.316 11.6633 121.186 11.6633C120.056 11.6633 119.265 12.3249 119.122 13.4163H123.268Z" fill="black" />
<path d="M38.0857 14.5077C38.0857 11.6453 39.9699 9.78526 42.8239 9.78526C45.6778 9.78526 47.4547 11.5024 47.4727 14.2039C47.4727 14.4718 47.4547 14.7765 47.4006 15.0624H40.724V15.1874C40.7781 16.4937 41.6215 17.2803 42.896 17.2803C43.9008 17.2803 44.6188 16.8335 44.8525 15.974H47.3473C47.0605 17.7631 45.4631 19.1943 42.9862 19.1943C39.9168 19.1943 38.0857 17.3522 38.0857 14.5077ZM44.9246 13.4163C44.7632 12.289 43.973 11.6633 42.8428 11.6633C41.7126 11.6633 40.9225 12.3249 40.779 13.4163H44.9246Z" fill="black" />
<path d="M99.3878 19.1961C95.6923 19.1961 93.0161 16.4784 93.0161 12.8302C93.0161 9.18206 95.6923 6.46432 99.3878 6.46432C103.083 6.46432 105.799 9.18206 105.799 12.8302C105.799 16.4784 103.083 19.1961 99.3878 19.1961ZM99.3878 16.9252C101.487 16.9252 103.036 15.191 103.036 12.8302C103.036 10.4694 101.487 8.73525 99.3878 8.73525C97.289 8.73525 95.7607 10.4694 95.7607 12.8302C95.7607 15.191 97.271 16.9252 99.3878 16.9252Z" fill="black" />
<path d="M125.891 9.28808H126.222C126.401 9.28808 126.521 9.39326 126.521 9.55779C126.521 9.66206 126.467 9.74478 126.382 9.78521L126.542 10.0972H126.349L126.212 9.82569H126.066V10.0972H125.892V9.28718L125.891 9.28808ZM126.065 9.43189V9.68093H126.208C126.289 9.68093 126.342 9.63241 126.342 9.55689C126.342 9.48136 126.289 9.43189 126.208 9.43189H126.065Z" fill="black" />
<path d="M126.185 10.5215C125.735 10.5215 125.369 10.1565 125.369 9.70878C125.369 9.26108 125.736 8.89608 126.185 8.89608C126.634 8.89608 127 9.26108 127 9.70878C127 10.1565 126.634 10.5215 126.185 10.5215ZM126.185 9.06959C125.831 9.06959 125.543 9.35637 125.543 9.70878C125.543 10.0612 125.831 10.348 126.185 10.348C126.539 10.348 126.826 10.0612 126.826 9.70878C126.826 9.35637 126.539 9.06959 126.185 9.06959Z" fill="black" />
<path d="M9.63237 5.51763L19.2647 10.3175V5.50775L9.63237 0.707031V5.51763Z" fill="url(#paint0_linear_4357_244)" />
<path d="M9.63237 19.8964L19.2647 15.0957V19.9063L9.63237 24.707V19.8964Z" fill="url(#paint1_linear_4357_244)" />
<path d="M9.63237 5.51763L0 10.3175V5.50775L9.63237 0.707031V5.51763Z" fill="url(#paint2_linear_4357_244)" />
<path d="M9.63237 19.8964L0 15.0957V19.9063L9.63237 24.707V19.8964Z" fill="url(#paint3_linear_4357_244)" />
<path d="M2.40641 11.5105L12.0316 16.3076L16.8554 13.9019L7.23475 9.10744L2.40641 11.5105Z" fill="url(#paint4_linear_4357_244)" />
</g></svg>